<svg width="195" height="112" viewBox="0 0 195 112" fill="none" xmlns="http://www.w3.org/2000/svg">
<path d="M106.213 42.625V38.766H108.355C109.868 38.766 110.548 39.48 110.548 40.704C110.548 41.894 109.868 42.625 108.355 42.625H106.213ZM112.537 40.704C112.537 38.783 111.16 37.185 108.355 37.185H104.275V49H106.213V44.206H108.355C111.432 44.206 112.537 42.387 112.537 40.704ZM114.385 49H116.323V36.42H114.385V49ZM118.222 44.274C118.222 47.164 120.177 49.153 122.608 49.153C124.172 49.153 125.294 48.405 125.889 47.606V49H127.844V39.633H125.889V40.993C125.311 40.228 124.223 39.48 122.642 39.48C120.177 39.48 118.222 41.384 118.222 44.274ZM125.889 44.308C125.889 46.331 124.512 47.47 123.05 47.47C121.605 47.47 120.211 46.297 120.211 44.274C120.211 42.251 121.605 41.163 123.05 41.163C124.512 41.163 125.889 42.302 125.889 44.308ZM134.078 46.773L131.443 39.633H129.284L132.973 48.847L131.069 53.403H133.075L138.821 39.633H136.815L134.078 46.773ZM148.559 37.185H144.7V49H148.559C152.35 49 154.832 46.773 154.832 43.135C154.832 39.48 152.35 37.185 148.559 37.185ZM146.638 47.419V38.766H148.559C151.347 38.766 152.843 40.432 152.843 43.135C152.843 45.821 151.347 47.419 148.559 47.419H146.638ZM160.697 41.112C162.142 41.112 163.281 42.03 163.315 43.475H158.13C158.334 41.996 159.388 41.112 160.697 41.112ZM165.083 46.212H162.992C162.635 46.943 161.972 47.521 160.782 47.521C159.354 47.521 158.249 46.586 158.113 45.039H165.27C165.321 44.716 165.338 44.41 165.338 44.087C165.338 41.333 163.451 39.48 160.782 39.48C158.011 39.48 156.107 41.367 156.107 44.308C156.107 47.249 158.096 49.153 160.782 49.153C163.077 49.153 164.556 47.844 165.083 46.212ZM180.522 49H182.443V43.475C182.443 40.857 180.777 39.48 178.584 39.48C177.224 39.48 175.898 40.194 175.32 41.333C174.674 40.109 173.433 39.48 171.954 39.48C170.832 39.48 169.812 39.939 169.183 40.704V39.633H167.245V49H169.183V43.764C169.183 42.047 170.118 41.163 171.546 41.163C172.957 41.163 173.892 42.047 173.892 43.764V49H175.813V43.764C175.813 42.047 176.748 41.163 178.176 41.163C179.587 41.163 180.522 42.047 180.522 43.764V49ZM193.834 44.308C193.834 41.367 191.726 39.48 189.057 39.48C186.388 39.48 184.28 41.367 184.28 44.308C184.28 47.249 186.303 49.153 188.972 49.153C191.658 49.153 193.834 47.249 193.834 44.308ZM186.252 44.308C186.252 42.183 187.561 41.163 189.023 41.163C190.468 41.163 191.845 42.183 191.845 44.308C191.845 46.433 190.417 47.47 188.972 47.47C187.51 47.47 186.252 46.433 186.252 44.308Z" fill="#686D77"/>
<g filter="url(#filter0_d_1_570)">
<circle cx="56" cy="41" r="26" fill="#DF6951"/>
</g>
<path d="M64 42.5L52.75 48.9952L52.75 36.0048L64 42.5Z" fill="white"/>
<defs>
<filter id="filter0_d_1_570" x="0" y="0" width="112" height="112" filterUnits="userSpaceOnUse" color-interpolation-filters="sRGB">
<feFlood flood-opacity="0" result="BackgroundImageFix"/>
<feColorMatrix in="SourceAlpha" type="matrix" values="0 0 0 0 0 0 0 0 0 0 0 0 0 0 0 0 0 0 127 0" result="hardAlpha"/>
<feOffset dy="15"/>
<feGaussianBlur stdDeviation="15"/>
<feColorMatrix type="matrix" values="0 0 0 0 0.87451 0 0 0 0 0.411765 0 0 0 0 0.317647 0 0 0 0.3 0"/>
<feBlend mode="normal" in2="BackgroundImageFix" result="effect1_dropShadow_1_570"/>
<feBlend mode="normal" in="SourceGraphic" in2="effect1_dropShadow_1_570" result="shape"/>
</filter>
</defs>
</svg>
